<mxfile host="app.diagrams.net" modified="2023-10-05T14:08:10.296Z" agent="Mozilla/5.0 (Windows NT 10.0; Win64; x64) AppleWebKit/537.36 (KHTML, like Gecko) Chrome/117.0.0.0 Safari/537.36" version="22.0.2" etag="Nt1rnN7B9L26_vTmXzl5" type="github">
  <diagram name="PÃ¡gina-1" id="AUO8adqCigprDQNLNqqX">
    <mxGraphModel>
      <root>
        <mxCell id="0" />
        <mxCell id="1" parent="0" />
      </root>
    </mxGraphModel>
  </diagram>
</mxfile>
